<svg width="72" height="104" viewBox="0 0 72 104" fill="none" xmlns="http://www.w3.org/2000/svg">
<path d="M70.0219 88.1488L70.0911 88.1245C70.2051 88.0067 70.2257 87.8441 70.1079 87.73C52.1579 66.0606 39.8761 30.6649 39.7546 30.319C39.706 30.1807 39.519 30.0909 39.3807 30.1395C39.2423 30.1882 39.1526 30.3751 39.2012 30.5135C39.3227 30.8593 51.5597 66.3485 69.6274 88.132C69.7901 88.1526 69.8836 88.1974 70.0219 88.1488Z" fill="#B5D3EF"/>
<path d="M67.9918 90.3381C68.061 90.3138 68.1059 90.2203 68.1751 90.196C68.1956 90.0334 68.147 89.895 67.96 89.8053C67.7039 89.7399 40.8833 80.2021 26.1451 53.5185C26.0965 53.3801 25.9095 53.2904 25.7263 53.4325C25.5879 53.4811 25.4982 53.6681 25.6403 53.8513C40.4963 80.6489 67.5039 90.2764 67.76 90.3419C67.8535 90.3867 67.9227 90.3624 67.9918 90.3381Z" fill="#B5D3EF"/>
<path d="M39.7691 31.2458C40.4365 30.9336 42.68 32.0104 42.1827 32.8068C41.7789 33.6481 39.285 34.2913 38.6549 34.0464C38.0941 33.7772 38.9876 31.6758 39.7691 31.2458Z" fill="#EE5D74"/>
<path d="M26.249 54.0269C26.778 53.7632 28.7411 54.7054 28.427 55.3598C28.1821 55.9898 26.3911 57.0854 25.5536 56.9134C24.8095 56.7863 25.5815 54.3391 26.249 54.0269Z" fill="#E1A668"/>
<path d="M40.2235 32.0968C35.6245 34.4899 27.6938 31.6035 23.4909 24.0656C19.0487 16.0678 20.789 7.52962 28.3251 4.64848C35.1694 2.0104 42.5579 5.7867 45.4914 13.6929C48.4249 21.5991 46.0639 29.0344 40.2235 32.0968Z" fill="#EE5D74"/>
<path opacity="0.7" d="M21.8853 10.8742C26.6434 19.7712 35.1257 26.6603 44.7913 27.8491C43.707 29.6289 42.131 31.1152 40.2222 32.0968C35.6232 34.4899 27.6925 31.6035 23.4896 24.0656C20.9339 19.4461 20.4159 14.6544 21.8853 10.8742Z" fill="#EB5569"/>
<path d="M26.4916 54.7185C23.7154 56.5489 16.6971 55.5956 13.0813 49.9497C9.13271 43.799 8.76799 37.0107 14.5355 33.7407C20.3029 30.4708 25.7639 34.0695 28.66 39.6575C31.556 45.2455 30.2082 52.2469 26.4916 54.7185Z" fill="#E1A668"/>
<path d="M11.2908 36.6679C11.9396 38.0719 12.8894 39.4478 13.9532 40.706C18.0625 45.3237 23.9404 47.4548 30.0725 48.0978C29.6781 50.9563 28.3732 53.4354 26.4682 54.6488C23.692 56.4791 16.6737 55.5258 13.0579 49.8799C10.0384 45.2678 9.07738 40.321 11.2908 36.6679Z" fill="#DFA262"/>
<path d="M43.6338 16.3658C42.2596 13.1185 40.1525 10.4395 37.3127 8.32883C36.6789 7.85211 37.4529 6.95845 38.0175 7.45947C40.9751 9.68416 43.2243 12.5464 44.6714 16.0013C44.9836 16.6687 43.8768 17.0576 43.6338 16.3658Z" fill="#F7B9BA"/>
<path d="M34.881 7.1627C34.1781 6.71029 33.3854 6.44483 32.5721 6.34202C31.8281 6.21491 32.0655 5.12122 32.7852 5.17916C33.8303 5.27823 34.7651 5.72689 35.655 6.26904C35.9354 6.40364 35.8738 6.89159 35.7148 7.10285C35.4868 7.33842 35.1615 7.2973 34.881 7.1627Z" fill="#F7B9BA"/>
<path opacity="0.55" d="M25.3234 39.897C24.1586 38.1303 22.4442 36.7899 20.3915 36.0347C19.6679 35.7449 20.1615 34.7166 20.885 35.0064C23.0555 35.8757 24.8877 37.3302 26.2638 39.2557C26.69 39.8054 25.7497 40.4467 25.3234 39.897Z" fill="#F2D9BD"/>
<path opacity="0.55" d="M18.8575 35.6414C18.1826 35.49 17.4628 35.432 16.7468 35.6059C16.0308 35.7798 15.6419 34.673 16.3579 34.4991C17.2815 34.2523 18.1396 34.2617 19.0706 34.4785C19.839 34.6748 19.6259 35.8377 18.8575 35.6414Z" fill="#F2D9BD"/>
<path fill-rule="evenodd" clip-rule="evenodd" d="M54.5078 5C54.784 5 55.0078 5.22386 55.0078 5.5V6.99997L56.5 6.99997C56.7761 6.99997 57 7.22383 57 7.49997C57 7.77611 56.7761 7.99997 56.5 7.99997H55.0078V9.5C55.0078 9.77614 54.784 10 54.5078 10C54.2317 10 54.0078 9.77614 54.0078 9.5V7.99997H52.5C52.2239 7.99997 52 7.77611 52 7.49997C52 7.22383 52.2239 6.99997 52.5 6.99997L54.0078 6.99997V5.5C54.0078 5.22386 54.2317 5 54.5078 5Z" fill="#E1A668"/>
<path fill-rule="evenodd" clip-rule="evenodd" d="M36.5047 57C36.6704 57 36.8047 57.1343 36.8047 57.3V58.2H37.7C37.8657 58.2 38 58.3343 38 58.5C38 58.6657 37.8657 58.8 37.7 58.8H36.8047V59.7C36.8047 59.8657 36.6704 60 36.5047 60C36.339 60 36.2047 59.8657 36.2047 59.7V58.8H35.3C35.1343 58.8 35 58.6657 35 58.5C35 58.3343 35.1343 58.2 35.3 58.2H36.2047V57.3C36.2047 57.1343 36.339 57 36.5047 57Z" fill="#E1A668"/>
<path fill-rule="evenodd" clip-rule="evenodd" d="M51.5047 32C51.6704 32 51.8047 32.1343 51.8047 32.3V33.2H52.7C52.8657 33.2 53 33.3343 53 33.5C53 33.6657 52.8657 33.8 52.7 33.8H51.8047V34.7C51.8047 34.8657 51.6704 35 51.5047 35C51.339 35 51.2047 34.8657 51.2047 34.7V33.8H50.3C50.1343 33.8 50 33.6657 50 33.5C50 33.3343 50.1343 33.2 50.3 33.2H51.2047V32.3C51.2047 32.1343 51.339 32 51.5047 32Z" fill="#EE5D74"/>
<path fill-rule="evenodd" clip-rule="evenodd" d="M11.5047 21C11.6704 21 11.8047 21.1343 11.8047 21.3V22.2H12.7C12.8657 22.2 13 22.3343 13 22.5C13 22.6657 12.8657 22.8 12.7 22.8H11.8047V23.7C11.8047 23.8657 11.6704 24 11.5047 24C11.339 24 11.2047 23.8657 11.2047 23.7V22.8H10.3C10.1343 22.8 10 22.6657 10 22.5C10 22.3343 10.1343 22.2 10.3 22.2H11.2047V21.3C11.2047 21.1343 11.339 21 11.5047 21Z" fill="#EE5D74"/>
</svg>
