<svg width="73" height="104" viewBox="0 0 73 104" fill="none" xmlns="http://www.w3.org/2000/svg">
<path d="M2.89995 88.1488L2.83078 88.1245C2.71674 88.0067 2.69618 87.8441 2.81397 87.73C20.7639 66.0606 33.0458 30.6649 33.1673 30.319C33.2159 30.1807 33.4029 30.0909 33.5412 30.1395C33.6795 30.1882 33.7693 30.3751 33.7207 30.5135C33.5991 30.8593 21.3622 66.3485 3.29443 88.132C3.13178 88.1526 3.0383 88.1974 2.89995 88.1488Z" fill="#B5D3EF"/>
<path d="M4.93003 90.3381C4.86086 90.3138 4.81599 90.2203 4.74682 90.196C4.72626 90.0334 4.77487 89.895 4.96183 89.8053C5.21796 89.7399 32.0386 80.2021 46.7768 53.5185C46.8254 53.3801 47.0124 53.2904 47.1956 53.4325C47.3339 53.4811 47.4237 53.6681 47.2816 53.8513C32.4256 80.6489 5.41798 90.2764 5.16185 90.3419C5.06838 90.3867 4.99921 90.3624 4.93003 90.3381Z" fill="#B5D3EF"/>
<path d="M33.1528 31.2458C32.4854 30.9336 30.2419 32.0104 30.7392 32.8068C31.143 33.6481 33.6369 34.2913 34.267 34.0464C34.8278 33.7772 33.9342 31.6758 33.1528 31.2458Z" fill="#EE5D74"/>
<path d="M46.6729 54.0269C46.1438 53.7632 44.1808 54.7054 44.4949 55.3598C44.7398 55.9898 46.5308 57.0854 47.3683 56.9134C48.1124 56.7863 47.3403 54.3391 46.6729 54.0269Z" fill="#E1A668"/>
<path d="M32.6984 32.0968C37.2974 34.4899 45.2281 31.6035 49.431 24.0656C53.8732 16.0678 52.1328 7.52962 44.5968 4.64848C37.7525 2.0104 30.3639 5.7867 27.4305 13.6929C24.497 21.5991 26.858 29.0344 32.6984 32.0968Z" fill="#EE5D74"/>
<path opacity="0.7" d="M51.0366 10.8742C46.2784 19.7712 37.7962 26.6603 28.1306 27.8491C29.2149 29.6289 30.7909 31.1152 32.6997 32.0968C37.2987 34.4899 45.2294 31.6035 49.4323 24.0656C51.988 19.4461 52.506 14.6544 51.0366 10.8742Z" fill="#EB5569"/>
<path d="M46.4302 54.7185C49.2065 56.5489 56.2247 55.5956 59.8405 49.9497C63.7892 43.799 64.1539 37.0107 58.3864 33.7407C52.619 30.4708 47.158 34.0695 44.2619 39.6575C41.3659 45.2455 42.7136 52.2469 46.4302 54.7185Z" fill="#E1A668"/>
<path d="M61.631 36.6679C60.9823 38.0719 60.0325 39.4478 58.9687 40.706C54.8594 45.3237 48.9815 47.4548 42.8494 48.0978C43.2438 50.9563 44.5487 53.4354 46.4537 54.6488C49.2299 56.4791 56.2482 55.5258 59.864 49.8799C62.8834 45.2678 63.8445 40.321 61.631 36.6679Z" fill="#DFA262"/>
<path d="M29.2881 16.3658C30.6623 13.1185 32.7693 10.4395 35.6092 8.32883C36.243 7.85211 35.469 6.95845 34.9044 7.45947C31.9467 9.68416 29.6976 12.5464 28.2505 16.0013C27.9383 16.6687 29.045 17.0576 29.2881 16.3658Z" fill="#F7B9BA"/>
<path d="M38.0408 7.1627C38.7438 6.71029 39.5365 6.44483 40.3497 6.34202C41.0938 6.21491 40.8564 5.12122 40.1366 5.17916C39.0916 5.27823 38.1568 5.72689 37.2669 6.26904C36.9864 6.40364 37.0481 6.89159 37.207 7.10285C37.4351 7.33842 37.7604 7.2973 38.0408 7.1627Z" fill="#F7B9BA"/>
<path opacity="0.55" d="M47.5985 39.897C48.7632 38.1303 50.4777 36.7899 52.5304 36.0347C53.2539 35.7449 52.7604 34.7166 52.0369 35.0064C49.8663 35.8757 48.0341 37.3302 46.6581 39.2557C46.2319 39.8054 47.1722 40.4467 47.5985 39.897Z" fill="#F2D9BD"/>
<path opacity="0.55" d="M54.0644 35.6414C54.7393 35.49 55.459 35.432 56.1751 35.6059C56.8911 35.7798 57.28 34.673 56.564 34.4991C55.6404 34.2523 54.7823 34.2617 53.8513 34.4785C53.0829 34.6748 53.296 35.8377 54.0644 35.6414Z" fill="#F2D9BD"/>
<path fill-rule="evenodd" clip-rule="evenodd" d="M18.3477 8C18.0715 8 17.8477 8.22386 17.8477 8.5V9.99997L16.3555 9.99997C16.0793 9.99997 15.8555 10.2238 15.8555 10.5C15.8555 10.7761 16.0793 11 16.3555 11H17.8477V12.5C17.8477 12.7761 18.0715 13 18.3477 13C18.6238 13 18.8477 12.7761 18.8477 12.5V11H20.3555C20.6316 11 20.8555 10.7761 20.8555 10.5C20.8555 10.2238 20.6316 9.99997 20.3555 9.99997L18.8477 9.99997V8.5C18.8477 8.22386 18.6238 8 18.3477 8Z" fill="#E1A668"/>
<path fill-rule="evenodd" clip-rule="evenodd" d="M56.3508 21C56.1851 21 56.0508 21.1343 56.0508 21.3V22.2H55.1555C54.9898 22.2 54.8555 22.3343 54.8555 22.5C54.8555 22.6657 54.9898 22.8 55.1555 22.8H56.0508V23.7C56.0508 23.8657 56.1851 24 56.3508 24C56.5165 24 56.6508 23.8657 56.6508 23.7V22.8H57.5555C57.7212 22.8 57.8555 22.6657 57.8555 22.5C57.8555 22.3343 57.7212 22.2 57.5555 22.2H56.6508V21.3C56.6508 21.1343 56.5165 21 56.3508 21Z" fill="#E1A668"/>
<path fill-rule="evenodd" clip-rule="evenodd" d="M37.3508 55C37.1851 55 37.0508 55.1343 37.0508 55.3V56.2H36.1555C35.9898 56.2 35.8555 56.3343 35.8555 56.5C35.8555 56.6657 35.9898 56.8 36.1555 56.8H37.0508V57.7C37.0508 57.8657 37.1851 58 37.3508 58C37.5165 58 37.6508 57.8657 37.6508 57.7V56.8H38.5555C38.7212 56.8 38.8555 56.6657 38.8555 56.5C38.8555 56.3343 38.7212 56.2 38.5555 56.2H37.6508V55.3C37.6508 55.1343 37.5165 55 37.3508 55Z" fill="#EE5D74"/>
</svg>
