<svg width="180" height="169" viewBox="0 0 180 169" fill="none" xmlns="http://www.w3.org/2000/svg">
<path d="M171.914 92.7909C172.169 86.1864 171.829 79.4973 171.234 72.8928C169.789 57.4823 166.388 41.0558 154.911 30.5563C142.159 18.8715 123.71 18.1941 107.302 18.8715C88.0888 19.6335 70.6605 16.0773 51.8721 11.5049C37.3344 7.94865 32.2334 11.1662 22.2866 16.2466C14.2951 20.3109 8.76906 28.1855 5.62348 36.4834C2.47789 44.7814 1.62773 53.8414 2.13783 62.732C2.47789 69.3365 3.66811 76.195 7.49382 81.6141C17.2706 95.4158 16.8456 86.5251 29.3429 97.0246C38.0145 104.306 39.7148 116.838 44.4757 127.083C54.5926 149.098 80.7774 161.207 104.922 158.666C131.872 155.872 159.842 139.107 168.599 112.52C170.639 106.169 171.574 99.5648 171.914 92.7909Z" fill="#EEF6FF"/>
<path d="M25.6992 115.9L84.9288 140.057L141.53 47.7759L82.3008 23.7202L25.6992 115.9Z" fill="white"/>
<path d="M124.549 32.4127C124.145 32.2105 123.639 32.4127 123.437 32.817C123.235 33.2213 123.336 33.6256 123.74 33.8277C124.145 34.0299 124.65 33.8277 124.852 33.4234C125.155 33.0191 124.953 32.5138 124.549 32.4127Z" fill="#1A81FF"/>
<path d="M154.467 40.2942L151.232 34.3308C152.344 36.3523 152.243 38.9802 150.828 41.406L154.063 47.3694C155.478 44.9436 155.579 42.3157 154.467 40.2942Z" fill="#83BEFF"/>
<path d="M81.5913 117.516C84.1181 118.526 84.9267 121.357 83.4106 123.782C81.8945 126.208 78.6601 127.421 76.1332 126.41L44.3959 113.473C41.8691 112.462 41.0605 109.632 42.5766 107.206C44.0927 104.78 47.3271 103.567 49.8539 104.578L81.5913 117.516ZM52.8862 112.563L71.8881 120.346C72.3935 120.548 73.101 120.346 73.4042 119.84C73.7075 119.335 73.5053 118.729 72.9999 118.526L53.998 110.744C53.4926 110.542 52.7851 110.744 52.4819 111.249C52.1786 111.754 52.3808 112.361 52.8862 112.563Z" fill="#5EA4F0"/>
<path d="M53.9984 110.743C53.4931 110.541 52.7855 110.743 52.4823 111.248C52.1791 111.754 52.3812 112.36 52.8866 112.562L71.8886 120.345C72.394 120.547 73.1015 120.345 73.4047 119.84C73.7079 119.334 73.5058 118.728 73.0004 118.526L53.9984 110.743Z" fill="#FCF8F7"/>
<path d="M52.9869 130.251C50.7633 129.645 48.1354 130.554 46.6192 132.475C46.8214 132.576 47.0235 132.879 46.8214 133.182C45.5074 135.507 46.5182 137.933 48.5397 138.741C49.4493 139.146 50.6622 139.146 51.9762 138.741C56.0192 137.326 56.6256 132.475 53.2901 130.959C52.8858 130.757 52.8858 130.453 52.9869 130.251Z" fill="#5EA4F0"/>
<path d="M147.899 31.4002C151.841 33.0174 153.155 37.4647 150.729 41.4066L84.02 149.96C81.5942 153.902 76.4394 155.722 72.4975 154.104L19.3324 132.373C15.3905 130.756 14.0765 126.309 16.5023 122.367L83.2114 13.8133C85.6372 9.97244 90.792 8.05203 94.7338 9.66922L147.899 31.4002ZM17.9174 122.974C15.997 126.107 17.0077 129.644 20.2421 130.958L73.4072 152.689C76.5405 154.003 80.6845 152.487 82.6049 149.354L149.314 40.8001C151.234 37.6668 150.224 34.1292 146.989 32.8152L93.8242 11.0843C90.6909 9.77029 86.5468 11.2864 84.6264 14.4197L17.9174 122.974Z" fill="#CBD8EC"/>
<path d="M98.6719 43.0267C99.0762 43.2288 99.5816 43.0267 99.8848 42.6224C100.087 42.2181 99.9858 41.8138 99.5815 41.6117L91.0913 38.1751C90.687 37.973 90.1816 38.1751 89.8784 38.5794C89.6763 38.9837 89.7773 39.388 90.1816 39.5902L98.6719 43.0267Z" fill="#5EA4F0"/>
<path d="M93.6211 38.2747C94.0254 38.4769 94.5308 38.2747 94.834 37.8704C95.0361 37.4661 94.9351 37.0618 94.5308 36.8597L92.5093 36.0511C92.105 35.849 91.5996 36.0511 91.2964 36.4554C91.0942 36.8597 91.1953 37.264 91.5996 37.4661L93.6211 38.2747Z" fill="#CEDAE7"/>
<path d="M86.5485 38.0716C86.8518 38.1727 87.2561 38.0716 87.3571 37.7684L89.3786 34.4329C89.5808 34.1297 89.4797 33.8265 89.1765 33.7254L85.7399 32.3104C85.4367 32.2093 85.0324 32.3104 84.9313 32.6136L82.9099 35.949C82.7077 36.2523 82.8088 36.5555 83.112 36.6566L86.5485 38.0716Z" fill="#5EA4F0"/>
<path d="M131.119 56.2673C131.523 56.4694 132.028 56.2673 132.332 55.863C132.534 55.4587 132.433 55.0544 132.028 54.8523L117.373 48.8889C116.968 48.6867 116.463 48.8889 116.16 49.2932C115.958 49.6975 116.059 50.1018 116.463 50.3039L131.119 56.2673Z" fill="#CEDAE7"/>
<path d="M107.666 25.4405C107.262 25.2384 106.756 25.4405 106.554 25.8448C106.352 26.2491 106.453 26.6534 106.857 26.8556L120.401 32.4146C120.806 32.6168 121.311 32.4146 121.513 32.0103C121.715 31.606 121.614 31.2017 121.21 30.9996L107.666 25.4405Z" fill="#5EA4F0"/>
<path d="M121.418 30.5936C122.829 31.208 122.033 31.8019 121.628 32.4084C121.224 33.0148 120.609 33.0193 120.003 32.7161L106.56 27.2581C105.953 26.9549 105.424 26.4068 106.028 25.2065C107.225 24.6063 107.818 24.9033 108.425 25.2065L121.418 30.5936ZM107.225 27.007L120.428 32.4084C121.028 32.4084 121.216 32.4129 121.418 32.0086C121.62 31.6043 121.519 31.2 121.115 30.9979L107.571 25.4388C107.093 25.4388 106.827 25.4023 106.624 25.8066C106.422 26.2109 106.82 26.9059 107.225 27.007Z" fill="#CBD8EC"/>
<path d="M125.258 33.5253C124.854 34.1318 124.045 34.435 123.439 34.1318C122.832 33.8286 122.63 33.2221 123.035 32.6157C123.439 32.0092 124.247 31.706 124.854 32.0092C125.46 32.2114 125.662 32.9189 125.258 33.5253ZM123.742 33.8286C124.146 34.0307 124.652 33.8286 124.854 33.4243C125.056 33.02 124.955 32.6157 124.551 32.4135C124.146 32.2114 123.641 32.4135 123.439 32.8178C123.237 33.2221 123.338 33.6264 123.742 33.8286Z" fill="#CBD8EC"/>
<path d="M146.99 32.8154C150.123 34.1294 151.134 37.667 149.314 40.8003L82.6054 149.354C80.685 152.487 76.5409 153.902 73.4076 152.69L20.2426 130.959C17.1092 129.645 16.0985 126.107 17.9178 122.974L84.6269 14.4199C86.5473 11.2866 90.6914 9.87157 93.8247 11.0845L146.99 32.8154ZM25.7006 115.899L84.9301 140.055L141.532 47.7744L82.3022 23.7188L25.7006 115.899ZM47.9369 139.752C49.1498 140.257 50.5648 140.257 52.182 139.752C57.2358 137.933 58.0443 131.767 53.7992 129.948C53.496 129.847 53.0917 130.049 52.9906 130.251C50.767 129.645 48.1391 130.554 46.6229 132.475C46.3197 132.374 46.0165 132.475 45.8144 132.778C44.1972 135.709 45.4101 138.741 47.9369 139.752ZM121.418 30.5918L107.874 25.0327C107.268 24.7295 106.459 25.0327 106.055 25.6392C105.65 26.2456 105.853 26.9531 106.459 27.1553L120.003 32.7144C120.609 33.0176 121.418 32.7144 121.822 32.1079C122.328 31.6025 122.125 30.895 121.418 30.5918ZM124.854 32.0068C124.248 31.7036 123.439 32.0068 123.035 32.6133C122.631 33.2197 122.833 33.9273 123.439 34.1294C124.046 34.4326 124.854 34.1294 125.259 33.523C125.663 32.9165 125.461 32.209 124.854 32.0068Z" fill="#83BEFF"/>
<path d="M81.7934 88.2439C81.8945 88.1586 81.9955 88.0733 82.0966 87.8175C82.1977 87.3911 82.8041 81.8479 82.7031 81.4215C82.602 80.9951 82.1977 80.8246 81.9955 80.8246C81.7934 80.7393 79.0644 80.5687 78.7612 80.5687C78.4579 80.5687 78.2558 80.4834 78.1547 80.057C78.0536 79.6306 78.1547 77.1575 78.6601 75.4519C79.1655 73.7464 80.4794 71.6144 80.7826 71.2732C80.8837 71.188 80.9848 71.1027 80.9848 71.1027C81.1869 71.0174 81.288 71.1027 81.4902 71.188C81.7934 71.3585 84.2192 72.4672 84.4213 72.5524C84.6235 72.6377 84.9267 72.6377 85.2299 72.5524C85.331 72.5524 85.331 72.4672 85.4321 72.3819C85.7353 72.0408 88.2621 67.0093 88.4643 66.5829C88.6664 66.1565 88.3632 65.9859 88.1611 65.7301C87.8578 65.5595 85.5331 64.0245 84.7245 63.8539C84.017 63.6834 83.3095 63.8539 82.8041 64.1098C82.703 64.1098 82.7031 64.1951 82.602 64.1951C82.0966 64.5362 77.5483 68.8854 75.7289 74.855C73.9096 80.8246 75.4257 86.7088 75.6278 87.2205C75.9311 87.7322 76.4364 88.3292 77.245 88.4997C78.0536 88.6703 80.8837 88.585 81.1869 88.4997C81.4902 88.3292 81.6923 88.3291 81.7934 88.2439Z" fill="#00D66E"/>
<path d="M64.608 88.5894C58.6446 76.3944 64.0016 61.2999 76.4337 54.8187C88.8658 48.3375 103.825 52.9426 109.687 65.1375C115.651 77.3325 110.294 92.427 97.8615 98.9082C85.4293 105.389 70.5714 100.784 64.608 88.5894ZM88.1583 65.5639C87.8551 65.3934 85.5304 63.8583 84.7218 63.6878C84.0143 63.5172 83.3067 63.6878 82.8014 63.9436C82.7003 63.9436 82.7003 64.0289 82.5992 64.0289C82.0939 64.37 77.5455 68.7193 75.7262 74.6888C73.9068 80.6584 75.423 86.5427 75.6251 87.0543C75.9283 87.566 76.4337 88.163 77.2423 88.3335C78.0509 88.5041 80.881 88.4188 81.1842 88.3335C81.3863 88.3335 81.4874 88.3335 81.5885 88.2483C81.6896 88.163 81.7906 88.0777 81.8917 87.8219C81.9928 87.3955 82.5992 81.8523 82.4982 81.4259C82.3971 80.9995 81.9928 80.8289 81.7906 80.8289C81.5885 80.7437 78.8595 80.5731 78.5563 80.5731C78.253 80.5731 78.0509 80.4878 77.9498 80.0614C77.8487 79.635 77.9498 77.1619 78.4552 75.4563C78.9606 73.7507 80.2745 71.6188 80.5777 71.2776C80.6788 71.1924 80.7799 71.1071 80.7799 71.1071C80.982 71.0218 81.0831 71.1071 81.2853 71.1924C81.5885 71.3629 84.0143 72.4716 84.2164 72.5568C84.4186 72.6421 84.7218 72.6421 85.025 72.5568C85.1261 72.5568 85.1261 72.4716 85.2272 72.3863C85.5304 72.0452 88.0572 67.0137 88.2594 66.5873C88.6637 65.905 88.4615 65.7345 88.1583 65.5639ZM98.67 67.0137C98.4679 66.6725 98.0636 66.5873 97.6593 66.7578C97.3561 66.9284 97.1539 67.4401 97.3561 67.7812C97.4572 67.9517 97.5582 68.1223 97.6593 68.2929C97.7604 68.4634 97.8615 68.7193 97.9625 68.8898C99.6808 72.3863 99.7819 76.3091 98.569 79.8056C97.3561 83.3021 94.7281 86.4574 91.1905 88.3335C90.7863 88.5041 90.483 88.6747 90.0787 88.8452C89.8766 88.9305 89.6744 89.0158 89.4723 89.1011C89.2701 89.1863 89.068 89.2716 88.8658 89.2716C88.8658 89.2716 88.7648 89.2716 88.7648 89.3569C88.4615 89.5275 88.2594 89.8686 88.3605 90.2097C88.4615 90.5508 88.8658 90.8067 89.2701 90.6361C89.6744 90.4655 90.1798 90.3802 90.5841 90.1244C90.9884 89.9538 91.3927 89.7833 91.8981 89.5275C95.84 87.4807 98.67 84.0696 100.085 80.1467C101.399 76.3091 101.298 71.9599 99.4786 68.1223C99.1754 67.7812 98.9733 67.4401 98.67 67.0137ZM95.1324 69.2309C94.9303 68.8898 94.526 68.8045 94.2228 68.9751C93.9196 69.1457 93.7174 69.6573 93.9196 69.9984C94.0206 70.169 94.1217 70.3396 94.3239 70.5101C94.3239 70.5954 94.4249 70.6807 94.4249 70.766C95.0314 71.9599 95.3346 73.2391 95.4357 74.433C95.5367 75.7975 95.3346 77.2472 94.8292 78.5264C94.2228 80.1467 93.3131 81.5965 91.9991 82.7904C91.2916 83.4726 90.483 84.0696 89.4723 84.5812C89.2701 84.7518 88.9669 84.8371 88.6637 85.0076C88.5626 85.0929 88.4615 85.0929 88.3605 85.0929C88.1583 85.1782 87.9562 85.2635 87.754 85.2635C87.754 85.2635 87.6529 85.2635 87.6529 85.3488C87.3497 85.5193 87.1476 85.8604 87.2486 86.2016C87.3497 86.5427 87.754 86.7985 88.1583 86.628C88.4615 86.5427 88.7648 86.3721 89.1691 86.2868C89.4723 86.1163 89.7755 86.031 90.0787 85.8604C90.382 85.6899 90.6852 85.5193 90.8873 85.3488C93.3131 83.8137 95.1324 81.5112 96.0421 78.9528C96.8507 76.6502 96.9518 74.1771 96.2443 71.8746C96.0421 71.2776 95.84 70.6807 95.5367 70.0837C95.4357 69.8279 95.2335 69.5721 95.1324 69.2309ZM91.6959 71.7893C91.5948 71.704 91.5948 71.6188 91.4938 71.5335C91.2916 71.1924 90.8873 71.1071 90.5841 71.2776C90.2809 71.4482 90.0787 71.9599 90.2809 72.301C90.382 72.3863 90.382 72.4716 90.483 72.5568C90.483 72.6421 90.5841 72.7274 90.5841 72.8127V72.898C91.2916 74.433 91.2916 76.0533 90.7863 77.503C90.2809 79.0381 89.1691 80.3173 87.6529 81.0848C87.5519 81.1701 87.3497 81.1701 87.2486 81.2553C87.2486 81.2553 87.1476 81.2553 87.1476 81.3406C86.9454 81.4259 86.8444 81.5112 86.6422 81.5112C86.6422 81.5112 86.5411 81.5112 86.5411 81.5965C86.2379 81.767 86.0358 82.1081 86.1368 82.4493C86.2379 82.7904 86.6422 83.0462 87.0465 82.8757C87.2487 82.7904 87.4508 82.7051 87.6529 82.6198C87.8551 82.5345 88.0572 82.4493 88.2594 82.364C88.8658 82.0229 89.3712 81.6817 89.8766 81.2553C90.8873 80.3173 91.6959 79.2086 92.1002 77.9294C92.4034 76.9061 92.6056 75.7122 92.5045 74.6035C92.4034 73.7507 92.2013 72.898 91.797 72.1304C91.797 72.0452 91.797 71.9599 91.6959 71.7893Z" fill="#DEF5FF"/>
<path d="M90.0785 85.9462C90.3818 85.7756 90.685 85.6051 90.8871 85.4345C93.3129 83.8995 95.1323 81.5969 96.0419 79.0386C96.8505 76.736 96.9516 74.2629 96.2441 71.9604C96.0419 71.3634 95.8398 70.7665 95.5366 70.1695C95.4355 69.9137 95.2333 69.5725 95.0312 69.3167C94.829 68.9756 94.4247 68.8903 94.1215 69.0609C93.8183 69.2314 93.6161 69.7431 93.8183 70.0842C93.9194 70.2548 94.0204 70.4253 94.2226 70.5959C94.2226 70.6812 94.3237 70.7665 94.3237 70.8517C94.9301 72.0456 95.2333 73.3248 95.3344 74.5188C95.4355 75.8832 95.2333 77.333 94.728 78.6122C94.1215 80.2325 93.2118 81.6822 91.8979 82.8761C91.1904 83.5584 90.3818 84.1553 89.371 84.667C89.1689 84.8376 88.8657 84.9229 88.5624 85.0934C88.4614 85.1787 88.3603 85.1787 88.2592 85.1787C88.0571 85.264 87.8549 85.3492 87.6528 85.3492C87.6528 85.3492 87.5517 85.3492 87.5517 85.4345C87.2485 85.6051 87.0463 85.9462 87.1474 86.2873C87.2485 86.6284 87.6528 86.8843 88.0571 86.7137C88.3603 86.6284 88.6635 86.4579 89.0678 86.3726C89.4721 86.202 89.7753 86.0315 90.0785 85.9462Z" fill="#00D66E"/>
<path d="M91.7997 89.6113C95.7416 87.5646 98.5717 84.1534 99.9867 80.2306C101.301 76.393 101.2 72.0437 99.3803 68.2062C99.1782 67.8651 98.976 67.4387 98.7739 67.0123C98.5717 66.6711 98.1674 66.5859 97.8642 66.7564C97.4599 67.0123 97.3588 67.4387 97.561 67.7798C97.662 67.9503 97.7631 68.1209 97.8642 68.2915C97.9653 68.462 98.0663 68.7179 98.1674 68.8884C99.8857 72.3849 99.9868 76.3077 98.7739 79.8042C97.561 83.3006 94.933 86.456 91.3954 88.3321C90.9911 88.5027 90.6879 88.6732 90.2836 88.8438C90.0815 88.9291 89.8793 89.0144 89.6772 89.0996C89.475 89.1849 89.2729 89.2702 89.0707 89.2702C89.0707 89.2702 88.9696 89.2702 88.9696 89.3555C88.6664 89.526 88.4643 89.8672 88.5654 90.2083C88.6664 90.5494 89.0707 90.8052 89.475 90.6347C89.8793 90.4641 90.3847 90.3788 90.789 90.123C90.9911 90.0377 91.3954 89.8672 91.7997 89.6113Z" fill="#00D66E"/>
<path d="M88.3598 82.3617C88.9662 82.0206 89.4716 81.6795 89.977 81.2531C90.9877 80.315 91.7963 79.2064 92.2006 77.9272C92.5038 76.9038 92.706 75.7099 92.6049 74.6013C92.5038 73.7485 92.3017 72.8957 91.8974 72.1282C91.8974 72.0429 91.7963 71.9576 91.7963 71.8724C91.6952 71.7871 91.6952 71.7018 91.5942 71.6165C91.392 71.2754 90.9877 71.1901 90.6845 71.3607C90.3813 71.5312 90.1791 72.0429 90.3813 72.384C90.4823 72.4693 90.4824 72.5546 90.5834 72.6399C90.5834 72.7251 90.6845 72.8104 90.6845 72.8957V72.981C91.392 74.516 91.392 76.1363 90.8866 77.5861C90.3813 79.1211 89.2695 80.4003 87.7533 81.1678C87.6523 81.2531 87.4501 81.2531 87.349 81.3384C87.349 81.3384 87.248 81.3384 87.248 81.4237C87.0458 81.5089 86.9447 81.5942 86.7426 81.5942C86.7426 81.5942 86.6415 81.5942 86.6415 81.6795C86.3383 81.8501 86.1362 82.1912 86.2372 82.5323C86.3383 82.8734 86.7426 83.1292 87.1469 82.9587C87.349 82.8734 87.5512 82.7881 87.7533 82.7028C87.9555 82.5323 88.1576 82.447 88.3598 82.3617Z" fill="#00D66E"/>
<path d="M15.9961 129.545L19.2305 135.508C19.938 136.721 21.0498 137.732 22.5659 138.439L19.3315 132.476C17.8154 131.768 16.7036 130.757 15.9961 129.545Z" fill="#1A6EF5"/>
<path d="M15.9961 129.544L19.2305 135.508C19.938 136.721 21.0498 137.731 22.5659 138.439L19.3315 132.476C17.8154 131.768 16.7036 130.757 15.9961 129.544Z" fill="#83BEFF"/>
<path d="M53.8991 129.949C53.4949 129.848 53.1916 130.05 53.0905 130.252C52.9895 130.454 52.9895 130.757 53.2927 130.96C56.6282 132.476 56.0217 137.327 51.9787 138.742C50.6648 139.248 49.553 139.147 48.5422 138.742C46.5207 137.934 45.51 135.508 46.8239 133.183C47.0261 132.88 46.8239 132.577 46.6218 132.476C46.3186 132.375 46.0154 132.476 45.8132 132.779C44.0949 135.71 45.4089 138.742 47.9358 139.753C49.1487 140.258 50.6648 140.258 52.1809 139.753C57.3357 137.934 58.0432 131.768 53.8991 129.949Z" fill="#CBD8EC"/>
<path d="M19.3281 132.374L22.5625 138.439L75.8287 160.17L72.4932 154.105L19.3281 132.374Z" fill="#83BEFF"/>
<path d="M84.0156 149.962L87.3511 156.027L153.959 47.3717L150.725 41.4083L84.0156 149.962Z" fill="#83BEFF"/>
<path d="M72.4961 154.106L75.7305 160.069C79.6724 161.686 84.8272 159.867 87.2529 155.925L84.0186 149.962C81.6939 153.903 76.5391 155.723 72.4961 154.106Z" fill="#83BEFF"/>
<path d="M82.6041 24.731L26.4067 116.203L25.6992 115.9L82.3008 23.7202L141.53 47.877L141.126 48.5845L82.6041 24.731Z" fill="#60A3EC"/>
</svg>
