<svg width="14" height="15" viewBox="0 0 14 15" fill="none" xmlns="http://www.w3.org/2000/svg">
<path d="M7 0.96875C3.25391 0.96875 0.21875 4.03125 0.21875 7.75C0.21875 11.4961 3.25391 14.5312 7 14.5312C10.7188 14.5312 13.7812 11.4961 13.7812 7.75C13.7812 4.03125 10.7188 0.96875 7 0.96875ZM7 13.6562C3.74609 13.6562 1.09375 11.0312 1.09375 7.75C1.09375 4.52344 3.71875 1.84375 7 1.84375C10.2266 1.84375 12.9062 4.49609 12.9062 7.75C12.9062 11.0039 10.2539 13.6562 7 13.6562ZM10.8555 6.16406C10.9922 6.02734 10.9922 5.80859 10.8555 5.69922L10.6367 5.45312C10.5 5.31641 10.2812 5.31641 10.1719 5.45312L5.6875 9.88281L3.80078 7.99609C3.69141 7.85938 3.47266 7.85938 3.33594 7.99609L3.11719 8.21484C2.98047 8.35156 2.98047 8.54297 3.11719 8.67969L5.46875 11.0586C5.57812 11.168 5.79688 11.168 5.93359 11.0586L10.8555 6.16406Z" fill="#00A912"/>
</svg>
