<svg width="11" height="11" viewBox="0 0 11 11" fill="none" xmlns="http://www.w3.org/2000/svg">
<path d="M6.6543 5.375L9.67188 2.38672L10.2871 1.77148C10.375 1.68359 10.375 1.53711 10.2871 1.41992L9.64258 0.775391C9.52539 0.6875 9.37891 0.6875 9.29102 0.775391L5.6875 4.4082L2.05469 0.775391C1.9668 0.6875 1.82031 0.6875 1.70312 0.775391L1.05859 1.41992C0.970703 1.53711 0.970703 1.68359 1.05859 1.77148L4.69141 5.375L1.05859 9.00781C0.970703 9.0957 0.970703 9.24219 1.05859 9.35938L1.70312 10.0039C1.82031 10.0918 1.9668 10.0918 2.05469 10.0039L5.6875 6.37109L8.67578 9.38867L9.29102 10.0039C9.37891 10.0918 9.52539 10.0918 9.64258 10.0039L10.2871 9.35938C10.375 9.24219 10.375 9.0957 10.2871 9.00781L6.6543 5.375Z" fill="#999999"/>
</svg>
