<svg width="12" height="13" viewBox="0 0 12 13" fill="none" xmlns="http://www.w3.org/2000/svg">
<path d="M6 1.8125C8.57812 1.8125 10.6875 3.92188 10.6875 6.5C10.6875 9.10156 8.57812 11.1875 6 11.1875C3.39844 11.1875 1.3125 9.10156 1.3125 6.5C1.3125 3.92188 3.39844 1.8125 6 1.8125ZM6 0.6875C2.78906 0.6875 0.1875 3.3125 0.1875 6.5C0.1875 9.71094 2.78906 12.3125 6 12.3125C9.1875 12.3125 11.8125 9.71094 11.8125 6.5C11.8125 3.3125 9.1875 0.6875 6 0.6875ZM6 4.625C4.94531 4.625 4.125 5.46875 4.125 6.5C4.125 7.55469 4.94531 8.375 6 8.375C7.03125 8.375 7.875 7.55469 7.875 6.5C7.875 5.46875 7.03125 4.625 6 4.625Z" fill="black"/>
</svg>
