<svg width="15" height="15" viewBox="0 0 15 15" fill="none" xmlns="http://www.w3.org/2000/svg">
<path d="M7.49227 0C7.20026 0.0046894 6.96497 0.242442 6.96497 0.53553C6.96497 0.538344 6.96497 0.540688 6.96497 0.543502V9.95936L3.59685 6.58955C3.49983 6.49248 3.36625 6.43293 3.2186 6.43293C2.92285 6.43293 2.68334 6.67302 2.68334 6.96846C2.68334 7.11664 2.74334 7.25029 2.84036 7.34736L7.12199 11.6311C7.12199 11.6311 7.12574 11.6344 7.12808 11.6363L7.12902 11.6372C7.13418 11.6424 7.1398 11.6475 7.14542 11.6527C7.15245 11.6593 7.16042 11.6658 7.16792 11.6724L7.16886 11.6733C7.17261 11.6761 7.17776 11.6799 7.18292 11.6837L7.18433 11.6846C7.19136 11.6897 7.20026 11.6963 7.20964 11.7024L7.21198 11.7038C7.21667 11.7071 7.2237 11.7113 7.2312 11.7155L7.23354 11.7169C7.23917 11.7202 7.24713 11.7249 7.25557 11.7291L7.25838 11.7305C7.2626 11.7329 7.2701 11.7366 7.2776 11.7395L7.28088 11.7409C7.28557 11.7432 7.294 11.747 7.30244 11.7507L7.30572 11.7521C7.31088 11.7545 7.32025 11.7573 7.32963 11.7606L7.33338 11.7615C7.33713 11.7629 7.34462 11.7657 7.35212 11.7681L7.35587 11.769C7.36103 11.7704 7.3704 11.7732 7.37978 11.7751L7.38306 11.7756C7.38774 11.777 7.39665 11.7788 7.40509 11.7803L7.40837 11.7807C7.41352 11.7817 7.42243 11.7831 7.43133 11.784L7.43415 11.7845C7.44071 11.7854 7.45008 11.7864 7.45946 11.7868H7.46086C7.4693 11.7873 7.47867 11.7878 7.48852 11.7878C7.49227 11.7878 7.49742 11.7882 7.50164 11.7882C7.50586 11.7882 7.51055 11.7882 7.51523 11.7878C7.53164 11.7873 7.54711 11.7864 7.56257 11.7845L7.56023 11.7849C7.56445 11.7845 7.56679 11.784 7.56679 11.784L7.56257 11.7845C7.57663 11.7826 7.58882 11.7807 7.60007 11.7784L7.59679 11.7788C7.60897 11.7765 7.61741 11.7746 7.62585 11.7728L7.6221 11.7737C7.63241 11.7713 7.63944 11.7695 7.646 11.7676L7.64225 11.7685C7.65678 11.7643 7.66756 11.761 7.67788 11.7577L7.67413 11.7587C7.68444 11.7554 7.69053 11.7526 7.69709 11.7502L7.69381 11.7516C7.70693 11.7465 7.71631 11.7427 7.72521 11.738L7.72193 11.7395C7.73927 11.7315 7.7524 11.7249 7.76552 11.7179L7.76271 11.7193C7.76505 11.7179 7.76599 11.7169 7.76599 11.7169L7.76412 11.7184C7.77677 11.7113 7.78661 11.7048 7.79646 11.6982L7.79458 11.6996C7.80349 11.6935 7.81052 11.6893 7.81708 11.6841L7.81567 11.6851C7.8288 11.6752 7.84005 11.6663 7.85083 11.6569L7.85364 11.6541C7.86254 11.6466 7.87098 11.6396 7.87848 11.6321L12.1596 7.34877C12.2599 7.25123 12.3218 7.11523 12.3218 6.9647C12.3218 6.6688 12.0823 6.42917 11.7866 6.42917C11.7809 6.42917 11.7758 6.42917 11.7701 6.42964C11.6258 6.43386 11.4969 6.49483 11.4032 6.59096L8.0355 9.96076V0.54444C8.0355 0.542095 8.0355 0.539751 8.0355 0.537406C8.0355 0.241504 7.79599 0.00187576 7.50023 0.00187576C7.49742 0.00187576 7.49461 0.00187576 7.4918 0.00187576L7.49227 0ZM0.542762 13.9289C0.540418 13.9289 0.538075 13.9289 0.535262 13.9289C0.239509 13.9289 0 14.1686 0 14.4645C0 14.7604 0.239978 15 0.535262 15C0.538075 15 0.540418 15 0.54323 15H14.4572C14.4596 15 14.4619 15 14.4647 15C14.7605 15 15 14.7604 15 14.4645C15 14.1686 14.7605 13.9289 14.4647 13.9289C14.4619 13.9289 14.4596 13.9289 14.4568 13.9289H0.542762Z" fill="white"/>
</svg>
