<svg width="171" height="106" viewBox="0 0 171 106" fill="none" xmlns="http://www.w3.org/2000/svg">
<path fill-rule="evenodd" clip-rule="evenodd" d="M140.336 100.532C140.198 100.771 140.28 101.077 140.519 101.215L141.817 101.964L141.067 103.264C140.929 103.503 141.011 103.809 141.25 103.947C141.489 104.085 141.795 104.003 141.933 103.764L142.683 102.464L143.983 103.215C144.223 103.353 144.528 103.271 144.666 103.032C144.805 102.793 144.723 102.487 144.483 102.349L143.183 101.598L143.933 100.3C144.071 100.061 143.989 99.755 143.75 99.617C143.511 99.4789 143.205 99.5608 143.067 99.8L142.317 101.098L141.019 100.349C140.78 100.211 140.474 100.293 140.336 100.532Z" fill="#FA0000" fill-opacity="0.2"/>
<path fill-rule="evenodd" clip-rule="evenodd" d="M2.73766 39.7512C2.54436 40.086 2.65908 40.5141 2.99388 40.7074L4.81439 41.7585L3.76501 43.5761C3.57171 43.9109 3.68642 44.339 4.02123 44.5323C4.35603 44.7256 4.78414 44.6109 4.97744 44.2761L6.02683 42.4585L7.84362 43.5074C8.17843 43.7007 8.60654 43.586 8.79984 43.2512C8.99314 42.9164 8.87843 42.4883 8.54362 42.295L6.72683 41.2461L7.77744 39.4264C7.97074 39.0916 7.85603 38.6634 7.52123 38.4701C7.18642 38.2768 6.75831 38.3916 6.56501 38.7264L5.51439 40.5461L3.69388 39.495C3.35908 39.3017 2.93096 39.4164 2.73766 39.7512Z" fill="#FA0000" fill-opacity="0.2"/>
<path fill-rule="evenodd" clip-rule="evenodd" d="M111.749 3.03211C111.556 3.36692 111.671 3.79503 112.006 3.98833L113.826 5.0394L112.777 6.85699C112.583 7.19179 112.698 7.61991 113.033 7.8132C113.368 8.0065 113.796 7.89179 113.989 7.55699L115.039 5.7394L116.855 6.78833C117.19 6.98163 117.618 6.86692 117.812 6.53211C118.005 6.19731 117.89 5.7692 117.555 5.5759L115.739 4.52697L116.789 2.70725C116.982 2.37244 116.868 1.94433 116.533 1.75103C116.198 1.55773 115.77 1.67244 115.577 2.00724L114.526 3.82697L112.706 2.7759C112.371 2.5826 111.943 2.69731 111.749 3.03211Z" fill="#FA0000" fill-opacity="0.2"/>
<path fill-rule="evenodd" clip-rule="evenodd" d="M156.75 34.763C156.446 35.2891 156.626 35.9619 157.152 36.2656L160.013 37.9171L158.363 40.7748C158.059 41.3009 158.24 41.9736 158.766 42.2774C159.292 42.5811 159.965 42.4009 160.268 41.8748L161.918 39.0171L164.773 40.6656C165.3 40.9694 165.972 40.7891 166.276 40.263C166.58 39.7369 166.4 39.0641 165.873 38.7604L163.018 37.1119L164.668 34.2537C164.972 33.7276 164.792 33.0549 164.266 32.7511C163.74 32.4474 163.067 32.6276 162.763 33.1537L161.113 36.0119L158.252 34.3604C157.726 34.0566 157.054 34.2369 156.75 34.763Z" fill="#FA0000" fill-opacity="0.2"/>
<path d="M34.4175 85.3761C34.8986 84.5428 36.1014 84.5428 36.5825 85.3761L38.7476 89.1261C39.2287 89.9594 38.6273 91.0011 37.6651 91.0011H33.3349C32.3727 91.0011 31.7713 89.9594 32.2524 89.1261L34.4175 85.3761Z" stroke="#FA0000" stroke-opacity="0.1" stroke-width="1.5"/>
<circle cx="169" cy="73.0011" r="1.5" stroke="#FA0000" stroke-opacity="0.1"/>
<circle cx="60" cy="14.0011" r="1.5" stroke="#FA0000" stroke-opacity="0.1"/>
<circle cx="38" cy="49.0011" r="1.5" stroke="#FA0000" stroke-opacity="0.1"/>
</svg>
