<svg width="17" height="16" viewBox="0 0 17 16" fill="none" xmlns="http://www.w3.org/2000/svg">
<path d="M15.4434 2.54492L14.3301 1.43164C13.5977 0.699219 12.4258 0.699219 11.6934 1.43164L1.35156 11.7734L1 15.1133C0.941406 15.5527 1.32227 15.9336 1.76172 15.875L5.10156 15.5234L15.4434 5.18164C16.1758 4.44922 16.1758 3.27734 15.4434 2.54492ZM5.80469 11.0703C5.98047 11.2461 6.30273 11.2461 6.47852 11.0703L11.7812 5.76758L12.6602 6.64648L6.09766 13.209V12.1836H4.69141V10.7773H3.66602L10.2285 4.21484L11.1074 5.09375L5.80469 10.3965C5.62891 10.5723 5.62891 10.8945 5.80469 11.0703ZM4.69141 14.6152L2.96289 14.8203L2.05469 13.9121L2.25977 12.1836L2.8457 11.5977H3.87109V13.0039H5.27734V14.0293L4.69141 14.6152ZM14.7695 4.53711L13.3047 6.00195L10.873 3.57031L12.3379 2.10547C12.7188 1.72461 13.3047 1.72461 13.6855 2.10547L14.7695 3.18945C15.1504 3.57031 15.1504 4.15625 14.7695 4.53711Z" fill="#1A81FF"/>
</svg>
