<svg width="200" height="151" viewBox="0 0 200 151" fill="none" xmlns="http://www.w3.org/2000/svg">
<path d="M13.9301 149.521C-14.6352 125.753 8.73831 104.703 13.931 89.5494C20.3023 70.9549 -2.39101 33.9254 22.4049 21.3582C51.4928 6.61482 77.2208 8.38523 124.544 32.0271C171.868 55.6575 195.14 65.1712 199.477 99.9446C203.813 134.718 179.762 150.76 179.762 150.76L13.9301 149.521Z" fill="#E3FEFF"/>
<path d="M13.9301 149.521C-14.6352 125.753 8.73831 104.703 13.931 89.5494C20.3023 70.9549 -2.39101 33.9254 22.4049 21.3582C51.4928 6.61482 77.2208 8.38523 124.544 32.0271C171.868 55.6575 195.14 65.1712 199.477 99.9446C203.813 134.718 179.762 150.76 179.762 150.76L13.9301 149.521Z" fill="#EEF6FF"/>
<path d="M15.5071 149.934H184.487C185.294 149.934 185.948 149.606 185.948 149.202V149.013C185.948 148.609 185.294 148.281 184.487 148.281H15.5071C14.7004 148.281 14.0469 148.609 14.0469 149.013V149.202C14.0469 149.606 14.7004 149.934 15.5071 149.934Z" fill="#C9E2FD"/>
<path d="M147.544 2H28.4502C23.3632 2 19.2383 5.81328 19.2383 10.5047V86.65C19.2383 91.3534 23.3632 95.1547 28.4502 95.1547H40.8009L39.1293 117.878L61.3172 95.1547H147.544C152.631 95.1547 156.755 91.3414 156.755 86.65V10.5047C156.755 5.81328 152.631 2 147.544 2Z" fill="#83BEFF"/>
<path d="M59.075 55.4219H39.2441C37.9333 55.4219 36.875 54.3633 36.875 53.0521C36.875 51.7409 37.9333 50.6824 39.2441 50.6824H59.075C60.3858 50.6824 61.4441 51.7409 61.4441 53.0521C61.4441 54.3633 60.3858 55.4219 59.075 55.4219Z" fill="#F3FFFF"/>
<path d="M138.549 55.4219H73.0918C71.7809 55.4219 70.7227 54.3633 70.7227 53.0521C70.7227 51.7409 71.7809 50.6824 73.0918 50.6824H138.549C139.86 50.6824 140.918 51.7409 140.918 53.0521C140.93 54.3633 139.86 55.4219 138.549 55.4219Z" fill="#F3FFFF"/>
<path d="M88.25 67.9685H39.2441C37.9333 67.9685 36.875 66.91 36.875 65.5988C36.875 64.2876 37.9333 63.229 39.2441 63.229H88.25C89.5609 63.229 90.6192 64.2876 90.6192 65.5988C90.6312 66.8979 89.5609 67.9685 88.25 67.9685Z" fill="#F3FFFF"/>
<path d="M138.555 42.8875H39.2441C37.9333 42.8875 36.875 41.8289 36.875 40.5177C36.875 39.2065 37.9333 38.1479 39.2441 38.1479H138.555C139.866 38.1479 140.924 39.2065 140.924 40.5177C140.936 41.8289 139.866 42.8875 138.555 42.8875Z" fill="#F3FFFF"/>
<path d="M138.543 67.9685H100.853C99.5427 67.9685 98.4844 66.91 98.4844 65.5988C98.4844 64.2876 99.5427 63.229 100.853 63.229H138.543C139.854 63.229 140.912 64.2876 140.912 65.5988C140.924 66.8979 139.854 67.9685 138.543 67.9685Z" fill="#F3FFFF"/>
<path d="M138.555 80.503H39.2441C37.9333 80.503 36.875 79.4444 36.875 78.1332C36.875 76.822 37.9333 75.7634 39.2441 75.7634H138.555C139.866 75.7634 140.924 76.822 140.924 78.1332C140.936 79.4324 139.866 80.503 138.555 80.503Z" fill="#F3FFFF"/>
<path d="M131.986 12.0444L134.74 17.638L140.921 18.5402L136.448 22.8948L137.506 29.0418L131.986 26.1427L126.454 29.0418L127.512 22.8948L123.051 18.5402L129.22 17.638L131.986 12.0444Z" fill="#F3FFFF"/>
<path d="M45.7986 12.0444L48.5525 17.638L54.7339 18.5402L50.2602 22.8948L51.3185 29.0418L45.7986 26.1427L40.2666 29.0418L41.3249 22.8948L36.8633 18.5402L43.0326 17.638L45.7986 12.0444Z" fill="#FFC107"/>
<path d="M49.5614 20.525C45.9055 20.525 42.7066 22.4738 40.9027 25.3848L40.2773 29.0417L45.7973 26.1427L51.3172 29.0417L50.2589 22.8948L52.3033 20.91C51.4254 20.6573 50.5115 20.525 49.5614 20.525Z" fill="#FFCD38"/>
<path d="M67.3419 12.0444L70.0958 17.638L76.2772 18.5402L71.8035 22.8948L72.8618 29.0418L67.3419 26.1427L61.8099 29.0418L62.8682 22.8948L58.3945 18.5402L64.5759 17.638L67.3419 12.0444Z" fill="#FFC107"/>
<path d="M71.1005 20.525C67.4446 20.525 64.2457 22.4738 62.4418 25.3848L61.8164 29.0417L67.3363 26.1427L72.8563 29.0417L71.798 22.8948L73.8424 20.91C72.9765 20.6573 72.0505 20.525 71.1005 20.525Z" fill="#FFCD38"/>
<path d="M88.8962 12.0444L91.6622 17.638L97.8315 18.5402L93.3699 22.8948L94.4282 29.0418L88.8962 26.1427L83.3763 29.0418L84.4346 22.8948L79.9609 18.5402L86.1423 17.638L88.8962 12.0444Z" fill="#FFC107"/>
<path d="M92.6552 20.525C88.9993 20.525 85.8003 22.4738 83.9964 25.3848L83.3711 29.0417L88.891 26.1427L94.411 29.0417L93.3527 22.8948L95.3971 20.91C94.5312 20.6573 93.6052 20.525 92.6552 20.525Z" fill="#FFCD38"/>
<path d="M110.439 12.0444L113.205 17.638L119.375 18.5402L114.913 22.8948L115.959 29.0418L110.439 26.1427L104.919 29.0418L105.966 22.8948L101.504 18.5402L107.673 17.638L110.439 12.0444Z" fill="#F3FFFF"/>
<path d="M181.879 142.357C181.879 142.357 182.744 143.212 182.757 143.524C182.781 143.837 182.829 147.193 182.48 147.506C182.131 147.819 181.097 148.035 181.422 148.396C181.674 148.661 183.598 148.601 184.885 148.528C185.258 148.504 185.727 145.485 185.871 145.04C186.088 144.39 186.857 142.995 186.665 142.538C186.569 142.321 185.859 141.816 185.222 141.395C184.548 140.95 183.899 139.964 183.899 139.964L181.879 142.357Z" fill="#F7A491"/>
<path d="M170.354 144.451L171.123 146.664C171.184 147.013 171.412 147.879 171.412 148.192C171.412 149.383 166.097 147.181 167.287 146.652C167.395 146.604 167.732 146.219 167.768 145.81C167.828 145.184 167.323 144.403 167.323 144.403L170.354 144.451Z" fill="#F7A491"/>
<path d="M161.477 102.697C161.477 102.697 161.08 106.354 161.08 106.414C161.08 112.814 160.335 125.324 160.575 126.527C161.152 129.462 167.502 145.449 167.502 145.449L170.785 144.98L166.384 126.106L168.007 118.888L170.292 104.61L161.477 102.697Z" fill="#2D2861"/>
<path d="M173.859 105.885L174.496 109.638L176.228 125.083L184.718 140.758C184.718 140.758 183.443 142.718 182.072 143.031L170.022 127.189L163.492 107.364L163.721 102.962L173.859 105.885Z" fill="#352E73"/>
<path d="M160.231 62.8923C160.123 63.0968 159.702 63.6381 159.702 63.6381C159.702 63.6381 160.664 73.9111 160.736 74.5607L163.658 78.9754L160.387 81.3812C160.387 81.3812 157.056 76.0403 157.02 75.7876C156.984 75.523 157.128 67.8363 157.128 67.8363C157.128 67.8363 157.369 63.8426 157.369 63.6501C157.369 63.4456 156.78 62.1585 156.671 61.6412C156.563 61.16 156.539 59.6804 156.539 59.6804L156.78 59.3316L157.91 59.079L158.716 59.1752C158.716 59.1752 160.568 59.921 160.64 60.1616C160.676 60.2699 160.58 61.6893 160.472 62.1946C160.435 62.363 160.315 62.7238 160.231 62.8923Z" fill="#F7A491"/>
<path d="M159.877 60.9555C159.877 60.9555 159.697 61.3886 159.408 61.7254C159.12 62.0622 158.567 61.978 158.242 61.5449C157.917 61.1119 157.797 60.6788 157.797 60.6788L159.877 60.9555Z" fill="#FE875E"/>
<path d="M164.529 37.1014L163.976 46.2918L171.228 51.9456L162.329 54.2672L159.178 62.9163L154.235 55.1574L145.035 54.8446L150.88 47.7353L148.342 38.8938L156.905 42.25L164.529 37.1014Z" fill="#FFC107"/>
<path d="M163.146 50.7187C158.468 48.0482 152.948 48.2045 148.511 50.6224L145.035 54.8447L154.235 55.1575L159.19 62.9163L162.329 54.2673L166.393 53.2087C165.443 52.2584 164.361 51.4043 163.146 50.7187Z" fill="#FFCD38"/>
<path d="M159.88 60.9916C159.868 60.763 159.904 60.2939 159.904 60.2939C159.904 60.2939 159.423 59.3676 159.531 59.3075C159.904 59.0909 160.65 60.1375 160.65 60.1375C160.65 60.1375 159.916 61.7253 159.88 60.9916Z" fill="#F7A491"/>
<path d="M156.702 61.605C156.702 61.605 156.185 59.6804 156.414 59.127C156.558 58.7782 158.458 58.0203 158.711 58.3571C158.939 58.6699 157.099 59.2954 157.159 59.3796C157.256 59.4999 158.542 58.6218 158.783 58.7902C159.047 58.9827 157.532 59.8969 157.604 60.0412C157.652 60.1375 158.494 59.2473 158.578 59.6443C158.663 60.0412 156.702 61.605 156.702 61.605Z" fill="#F7A491"/>
<path d="M161.418 100.472L162.079 91.3413C162.296 89.0919 162.38 87.2875 162.2 86.6379C161.815 85.2545 158.977 80.6112 158.977 80.6112C158.977 80.6112 161.694 77.5798 163.619 77.5798C163.619 77.5798 165.759 81.6938 168.297 82.0547C170.834 82.4156 170.293 82.4276 171.327 82.5479C172.542 82.6802 173.684 82.8727 174.622 83.2577C176.559 84.0636 175.103 91.3293 174.875 92.5082C174.538 94.2885 175.164 109.337 175.164 109.337C175.164 109.337 169.596 110.588 161.069 106.414L161.418 100.472Z" fill="#FC008B"/>
<path d="M170.809 78.5543L171.411 82.6202C171.411 82.6202 169.186 87.3597 167.839 86.9507C166.72 86.6019 167.418 82.2593 167.418 82.2593C167.418 82.2593 168.019 80.082 167.827 78.9513C167.646 77.8085 170.809 78.5543 170.809 78.5543Z" fill="#F7A491"/>
<path d="M170.379 79.7813C169.802 80.07 168.671 80.4669 167.781 80.5632C167.865 79.9978 167.914 79.3963 167.841 78.9513C167.757 78.422 168.383 78.3017 169.08 78.3257C169.994 78.4099 170.812 78.5663 170.812 78.5663L170.932 79.3482C170.752 79.5287 170.571 79.685 170.379 79.7813Z" fill="#FE875E"/>
<path d="M173.702 73.8629C173.798 73.8629 172.8 78.41 171.248 79.1919C169.697 79.9738 167.388 79.5648 166.955 78.3378C166.474 76.9785 168.23 72.3472 170.406 71.7578C172.571 71.1683 173.702 73.8629 173.702 73.8629Z" fill="#F7A491"/>
<path d="M185.609 88.6108L184.105 97.6929L190.732 104.08L181.64 105.452L177.611 113.728L173.486 105.5L164.383 104.225L170.937 97.7651L169.325 88.7071L177.491 92.9414L185.609 88.6108Z" fill="#FFC107"/>
<path d="M182.815 102.011C178.438 98.8718 172.942 98.4508 168.264 100.388L164.367 104.225L173.483 105.5L177.596 113.728L181.624 105.452L185.773 104.826C184.944 103.78 183.958 102.829 182.815 102.011Z" fill="#FFCD38"/>
<path d="M180.001 90.764C180.001 90.764 181.985 93.4586 182.105 93.9277C182.226 94.3969 181.36 105.584 181.312 106.57C181.312 106.57 181.672 107.761 181.889 108.519C182.093 109.277 182.189 109.842 182.081 109.987C181.973 110.131 181.66 110.035 181.528 110.324C181.408 110.612 181.035 110.564 180.915 110.624C180.794 110.685 180.458 111.106 180.337 111.094C180.217 111.081 180.001 111.057 179.892 111.13C179.784 111.202 179.604 111.382 179.339 111.346C179.087 111.298 178.954 111.154 178.954 111.154C178.954 111.154 179.159 109.097 179.003 109.109C178.858 109.109 178.473 109.289 178.425 109.409C178.377 109.53 178.401 109.818 178.341 109.939C178.293 110.059 178.113 110.191 177.968 110.131C177.812 110.083 177.836 109.373 177.836 109.373C177.836 109.373 177.86 108.796 178.065 108.459C178.774 107.292 178.93 107.449 179.027 107.304C179.075 107.232 179.015 104.333 179.015 104.333C179.015 104.333 178.726 96.105 178.702 95.6599L176.609 92.5564L180.001 90.764Z" fill="#F8A492"/>
<path d="M180.832 90.788L176.646 93.9397C176.646 93.9397 174.362 90.4873 173.135 89.2603C171.596 87.7206 173.76 82.8367 174.686 83.2697C176.959 84.3524 180.832 90.788 180.832 90.788Z" fill="#FC008B"/>
<path d="M171.898 69.6888C173.136 70.4466 173.701 71.5774 173.894 72.0465C174.471 72.3473 175.181 72.9728 175.517 74.693C175.938 76.7981 174.459 78.4341 172.896 78.9152C171.332 79.4084 171.068 80.5151 171.068 80.5151L170.911 79.3242C170.911 79.3242 171.26 78.2897 171.777 77.7724C172.306 77.2552 171.525 76.4973 171.465 75.8839C171.417 75.4147 171.741 74.4885 171.669 73.7066L171.477 73.057C171.477 73.057 170.851 72.0706 169.937 71.9503C169.023 71.83 170.31 68.7024 171.898 69.6888Z" fill="#2D2861"/>
<path d="M171.237 76.6658C171.033 77.1951 171.117 77.7123 171.417 77.8326C171.718 77.9529 172.139 77.6161 172.331 77.0988C172.536 76.5696 172.452 76.0523 172.151 75.932C171.862 75.8117 171.441 76.1485 171.237 76.6658Z" fill="#F7A491"/>
<path d="M185.203 141.371C185.203 141.371 183.219 147.037 182.437 147.314C182.233 147.386 181.234 147.566 181.054 148.011C180.994 148.144 181.054 148.589 181.054 148.589H185.191C185.191 148.589 185.72 146.087 185.925 144.992C185.925 144.992 187.019 142.309 186.899 142.069C186.766 141.84 185.203 141.371 185.203 141.371Z" fill="#2D2861"/>
<path d="M171.713 148.589L171.099 146.64C171.099 146.64 169.825 147.193 169.187 147.097C168.55 147.001 167.299 146.64 167.299 146.64C164.75 147.494 162.657 147.903 163.042 148.589H171.713Z" fill="#2D2861"/>
</svg>
