<svg width="10" height="11" viewBox="0 0 10 11" fill="none" xmlns="http://www.w3.org/2000/svg">
<path d="M5 7.23633C4.6875 7.23633 4.45312 7.49023 4.45312 7.7832C4.45312 8.0957 4.6875 8.33008 5 8.33008C5.29297 8.33008 5.54688 8.0957 5.54688 7.7832C5.54688 7.49023 5.29297 7.23633 5 7.23633ZM5.13672 6.76758C5.27344 6.76758 5.37109 6.66992 5.37109 6.5332C5.37109 5.69336 6.89453 5.75195 6.89453 4.44336C6.89453 3.44727 5.99609 2.86133 4.98047 2.86133C4.10156 2.86133 3.61328 3.21289 3.20312 3.74023C3.125 3.85742 3.14453 3.99414 3.26172 4.07227L3.51562 4.26758C3.61328 4.32617 3.75 4.30664 3.82812 4.20898C4.12109 3.83789 4.41406 3.64258 4.98047 3.64258C5.76172 3.64258 6.11328 4.05273 6.11328 4.44336C6.11328 5.2832 4.58984 5.16602 4.58984 6.5332C4.58984 6.66992 4.70703 6.76758 4.82422 6.76758H5.13672ZM5 1.37695C7.30469 1.37695 9.21875 3.27148 9.21875 5.5957C9.21875 7.93945 7.32422 9.81445 5 9.81445C2.65625 9.81445 0.78125 7.93945 0.78125 5.5957C0.78125 3.27148 2.65625 1.37695 5 1.37695ZM5 0.751953C2.32422 0.751953 0.15625 2.93945 0.15625 5.5957C0.15625 8.27148 2.32422 10.4395 5 10.4395C7.65625 10.4395 9.84375 8.27148 9.84375 5.5957C9.84375 2.93945 7.65625 0.751953 5 0.751953Z" fill="black" fill-opacity="0.5"/>
</svg>
