<svg width="27" height="22" viewBox="0 0 27 22" fill="none" xmlns="http://www.w3.org/2000/svg">
<path d="M2.25556 17.2814C0.773603 16.8665 -0.0563057 15.5624 0.00297273 14.0804C0.00297273 13.6655 0.062262 13.2505 0.180819 12.8356C0.773603 10.4644 1.36639 8.09328 2.01845 5.72214C2.25557 4.7144 2.49268 3.70667 2.90763 2.75822C3.50042 1.33553 4.6267 0.387078 6.10866 0.0906855C6.87928 -0.0871499 7.76845 0.031407 8.59835 0.149964C10.2581 0.387078 11.918 0.68347 13.5185 1.09842C17.1345 2.04687 20.869 2.81749 24.1293 4.83296C25.552 5.72214 26.2041 6.67059 25.9669 8.21183C25.4334 11.9464 24.5443 15.6216 22.7659 19.0598C21.5803 21.3717 20.1577 22.083 17.3123 21.5495C15.2375 21.1345 13.1628 20.4825 11.088 19.8897C10.7324 19.7711 10.6138 19.8304 10.436 20.1268C10.1989 20.5418 9.8432 20.9567 9.60609 21.4309C9.3097 21.9052 8.95403 22.083 8.42052 21.9644C7.94629 21.8459 7.6499 21.5495 7.59063 21.0753C7.47207 20.3046 7.35351 19.4747 7.23495 18.6448C5.51588 18.1706 3.85608 17.7557 2.25556 17.2814ZM9.42826 19.2376C9.90249 18.7041 10.3174 18.7041 10.9695 19.0005C11.5623 19.2969 12.2143 19.3562 12.8071 19.534C14.1705 19.8897 15.5339 20.3046 16.8973 20.601C17.4308 20.7196 17.9644 20.8381 18.4979 20.8381C19.9205 20.8381 20.6912 20.0082 21.1061 18.7634C21.5803 17.5186 21.9953 16.2737 22.351 14.9696C22.8252 13.6062 23.2401 12.1835 23.6551 10.7608C23.8922 9.75307 24.0108 8.74534 24.1886 7.73761C24.1886 7.55977 24.07 7.32266 24.0107 7.08554C23.2994 5.66286 22.0546 4.89224 20.5726 4.29946C17.8458 3.29172 15.0597 2.69894 12.2143 2.04687C10.3767 1.63193 8.4798 1.27625 6.64217 0.920584C6.40505 0.861305 6.10867 0.920584 5.87155 1.09842C4.68598 1.80976 4.03391 2.93605 3.67824 4.24018C2.90762 7.2041 2.13701 10.1087 1.42567 13.0727C1.30711 13.6655 1.30711 14.3175 1.36639 14.9103C1.48494 15.6809 2.01844 16.1551 2.72979 16.333C3.97463 16.6887 5.27875 17.0443 6.5236 17.4C7.94629 17.7557 7.94629 17.7557 8.30196 19.1783C8.36123 19.4747 8.47981 19.7711 8.53908 20.1268C8.95403 19.8304 9.13187 19.534 9.42826 19.2376Z" fill="black"/>
<path d="M8.29704 19.1837C7.94137 17.8203 8.00556 17.9335 6.58288 17.5186C5.33803 17.1629 4.03391 16.8665 2.78906 16.4516C2.07772 16.2145 1.54422 15.7995 1.42566 15.0289C1.36638 14.4361 1.36637 13.7841 1.48493 13.1913C2.19627 10.2273 2.9669 7.26342 3.73752 4.35878C4.09319 3.05465 4.74524 1.92836 5.93081 1.21702C6.10864 1.09846 6.46433 1.03918 6.70144 1.03918C8.53907 1.39486 10.436 1.75053 12.2736 2.16548C15.0597 2.81754 17.9051 3.41032 20.6319 4.41806C22.1138 4.95156 23.2994 5.78146 24.07 7.20414C24.1886 7.38198 24.3071 7.61909 24.2479 7.85621C24.1293 8.86394 24.0107 9.87167 23.7143 10.8794C23.3587 12.3021 22.8845 13.6655 22.4102 15.0882C21.9953 16.333 21.5803 17.6371 21.1654 18.882C20.7504 20.1268 19.9205 20.9567 18.5571 20.9567C18.0236 20.9567 17.4901 20.8382 16.9566 20.7196C15.5932 20.364 14.2298 20.0083 12.8664 19.6526C12.2736 19.4748 11.6215 19.3562 11.0288 19.1191C10.436 18.8227 9.96174 18.8227 9.48752 19.3562C9.2504 19.6526 8.59343 20.3834 8.29704 20.7391C8.11921 20.2649 8.4156 19.48 8.29704 19.1837ZM13.1035 6.25569C12.3922 5.07012 11.088 4.59589 9.84319 5.01084C8.65762 5.42579 7.70918 6.72992 7.94629 7.97476C8.1834 9.33817 8.65763 10.7016 9.13186 12.065C9.48753 13.1913 9.96174 14.3176 10.3767 15.5031C10.6138 16.0959 11.0288 16.333 11.5623 16.0959C13.0442 15.4438 14.5262 14.7918 15.9489 14.0212C17.253 13.3098 18.0829 12.1243 18.5571 10.7609C18.9128 9.75312 18.9128 8.74538 18.1422 7.91548C17.3123 7.08559 16.3045 7.08559 15.2375 7.38198C14.7633 7.50054 14.2891 7.85621 13.8741 8.03404C13.637 7.44126 13.3999 6.78919 13.1035 6.25569Z" fill="#EE5D74"/>
<path d="M15.641 6.90928C16.7938 6.58336 18.0145 6.51818 18.9639 7.49594C19.8455 8.40852 19.8455 9.51665 19.4386 10.6248C18.8961 12.1892 17.9467 13.4929 16.4548 14.2099C14.8272 15.0573 13.1318 15.7743 11.4364 16.4914C10.8261 16.7521 10.2835 16.4914 10.0801 15.8395C9.60537 14.601 9.06286 13.3625 8.65597 12.0588C8.18126 10.5596 7.63874 9.12554 7.29966 7.56112C7.0284 6.19226 8.11343 4.69302 9.46974 4.30192C10.8261 3.84563 12.3858 4.43228 13.1996 5.67078C13.5387 6.25744 13.81 6.97447 14.0812 7.56112C14.5559 7.43076 15.0306 7.03965 15.641 6.90928ZM15.7088 13.2321C17.0651 12.4499 17.8111 11.1463 18.1501 9.7122C18.218 9.51665 18.2179 9.25591 18.2179 8.99518C18.1501 7.69149 17.0651 7.10483 15.8444 7.75668C15.2341 8.0826 14.6916 8.66925 14.0812 9.06036C13.81 9.25591 13.403 9.38628 13.1318 9.3211C12.9283 9.3211 12.7927 8.86481 12.7249 8.60407C12.4536 7.82186 12.318 6.97447 11.9789 6.19226C11.8433 5.86634 11.572 5.6056 11.3008 5.34486C10.487 4.62784 9.67319 4.82339 9.19849 5.73597C8.79159 6.45299 8.65597 7.2352 8.92723 8.01741C9.6732 10.364 10.5548 12.7107 11.3686 15.318C12.9283 14.6662 14.3525 14.0144 15.7088 13.2321Z" fill="black"/>
<path d="M11.1361 15.5542C12.8509 14.7846 14.4166 14.1432 15.9078 13.3736C17.3989 12.6039 18.2191 11.3212 18.5919 9.91013C18.6664 9.71771 18.6664 9.46116 18.6664 9.20461C18.5919 7.92186 17.3989 7.34463 16.0569 7.986C15.3859 8.30669 14.7894 8.88393 14.1184 9.26875C13.8202 9.46116 13.3728 9.58944 13.0746 9.5253C12.8509 9.5253 12.7018 9.07634 12.6273 8.81979C12.329 8.05014 12.1799 7.21635 11.8071 6.4467C11.658 6.12601 11.3598 5.86946 11.0615 5.61291C10.1669 4.9074 9.27216 5.09981 8.75026 5.99774C8.30291 6.70325 8.1538 7.4729 8.45203 8.24255C9.27217 10.6798 10.1669 13.0529 11.1361 15.5542Z" fill="#FBF281"/>
</svg>
