<svg width="199" height="95" viewBox="0 0 199 95" fill="none" xmlns="http://www.w3.org/2000/svg">
<path fill-rule="evenodd" clip-rule="evenodd" d="M152.5 90.0001C152.224 90.0001 152 90.224 152 90.5001V92.0001L150.5 92.0001C150.224 92.0001 150 92.224 150 92.5001C150 92.7763 150.224 93.0001 150.5 93.0001H152V94.5001C152 94.7763 152.224 95.0001 152.5 95.0001C152.776 95.0001 153 94.7763 153 94.5001V93.0001H154.5C154.776 93.0001 155 92.7763 155 92.5001C155 92.224 154.776 92.0001 154.5 92.0001L153 92.0001V90.5001C153 90.224 152.776 90.0001 152.5 90.0001Z" fill="#02CCC0"/>
<path fill-rule="evenodd" clip-rule="evenodd" d="M167.501 28.0001C167.114 28.0001 166.801 28.3135 166.801 28.7001V30.8001H164.7C164.313 30.8001 164 31.1135 164 31.5001C164 31.8867 164.313 32.2001 164.7 32.2001H166.801V34.3001C166.801 34.6867 167.114 35.0001 167.501 35.0001C167.887 35.0001 168.201 34.6867 168.201 34.3001V32.2001H170.3C170.687 32.2001 171 31.8867 171 31.5001C171 31.1135 170.687 30.8001 170.3 30.8001H168.201V28.7001C168.201 28.3135 167.887 28.0001 167.501 28.0001Z" fill="#1A81FF"/>
<path fill-rule="evenodd" clip-rule="evenodd" d="M47.5008 41.0001C47.1142 41.0001 46.8008 41.3135 46.8008 41.7001V43.8001H44.7C44.3134 43.8001 44 44.1135 44 44.5001C44 44.8867 44.3134 45.2001 44.7 45.2001H46.8008V47.3001C46.8008 47.6867 47.1142 48.0001 47.5008 48.0001C47.8874 48.0001 48.2008 47.6867 48.2008 47.3001V45.2001H50.3C50.6866 45.2001 51 44.8867 51 44.5001C51 44.1135 50.6866 43.8001 50.3 43.8001H48.2008V41.7001C48.2008 41.3135 47.8874 41.0001 47.5008 41.0001Z" fill="#FFC700"/>
<path fill-rule="evenodd" clip-rule="evenodd" d="M15.5023 22.0001C14.8948 22.0001 14.4023 22.4926 14.4023 23.1001V26.4002H11.1C10.4925 26.4002 10 26.8927 10 27.5002C10 28.1077 10.4925 28.6002 11.1 28.6002H14.4023V31.9001C14.4023 32.5076 14.8948 33.0001 15.5023 33.0001C16.1099 33.0001 16.6023 32.5076 16.6023 31.9001V28.6002H19.9C20.5075 28.6002 21 28.1077 21 27.5002C21 26.8927 20.5075 26.4002 19.9 26.4002H16.6023V23.1001C16.6023 22.4926 16.1099 22.0001 15.5023 22.0001Z" fill="#1A81FF"/>
<path d="M191.417 62.3751C191.899 61.5418 193.101 61.5418 193.583 62.3751L195.748 66.1251C196.229 66.9585 195.627 68.0001 194.665 68.0001H190.335C189.373 68.0001 188.771 66.9585 189.252 66.1251L191.417 62.3751Z" stroke="#FFC700" stroke-width="1.5"/>
<circle cx="4" cy="70.0001" r="3" stroke="#02CCC0" stroke-width="2"/>
<circle cx="67" cy="4.00012" r="1.5" stroke="#02CCC0"/>
<circle cx="137" cy="4.00012" r="3" stroke="#FFC700" stroke-width="2"/>
</svg>
